<?xml version="1.0" standalone="no"?>
<!DOCTYPE svg PUBLIC "-//W3C//DTD SVG 20010904//EN"
 "http://www.w3.org/TR/2001/REC-SVG-20010904/DTD/svg10.dtd">
<svg version="1.0" xmlns="http://www.w3.org/2000/svg"
 width="512.000000pt" height="512.000000pt" viewBox="0 0 512.000000 512.000000"
 preserveAspectRatio="xMidYMid meet">

<g transform="translate(0.000000,512.000000) scale(0.100000,-0.100000)"
fill="#000000" stroke="none">
<path d="M2870 4934 c-107 -29 -208 -107 -255 -197 l-28 -52 -61 29 c-79 39
-214 48 -297 21 -104 -34 -203 -115 -248 -204 -26 -49 -51 -144 -51 -188 l0
-33 -43 6 c-98 14 -244 -42 -327 -125 -27 -27 -61 -77 -80 -116 -28 -58 -34
-84 -38 -160 l-5 -92 -50 -2 c-220 -10 -404 -226 -384 -449 5 -52 18 -92 62
-197 3 -5 -13 -18 -35 -28 -22 -10 -61 -38 -87 -62 -172 -155 -184 -415 -28
-592 l43 -48 -45 -48 c-181 -194 -127 -513 110 -647 l56 -31 -6 -92 -6 -92
-64 -70 c-89 -95 -98 -115 -98 -207 l1 -76 -341 -189 c-187 -103 -352 -200
-368 -215 -19 -18 -27 -37 -27 -60 0 -29 25 -57 258 -290 233 -233 261 -258
290 -258 23 0 42 8 60 28 15 15 112 181 217 369 l189 343 52 -6 c80 -10 138
14 225 95 l74 68 92 5 93 5 30 -54 c134 -237 447 -290 646 -110 l51 46 24 -25
c59 -63 165 -114 267 -128 58 -9 154 10 222 42 66 31 159 121 186 179 10 24
24 41 29 38 6 -2 39 -16 75 -32 87 -37 215 -39 303 -4 148 58 261 209 268 358
l2 50 92 5 c76 4 102 10 158 37 122 58 209 170 237 305 7 33 10 79 6 103 l-6
43 33 0 c18 0 59 7 90 15 146 38 245 129 297 272 19 53 22 77 18 155 -3 77 -9
103 -34 154 l-29 61 53 28 c29 15 73 50 97 77 150 166 151 412 2 571 l-42 45
44 49 c205 225 106 588 -187 680 -38 12 -51 21 -47 31 54 141 17 316 -91 432
-110 117 -298 162 -446 105 -10 -4 -19 9 -31 47 -92 294 -453 392 -681 186
l-48 -43 -39 37 c-107 102 -257 140 -399 102z m588 -782 c78 -35 168 -49 245
-35 34 6 69 14 78 17 12 5 19 -3 28 -36 41 -138 152 -248 289 -289 33 -9 41
-16 36 -28 -3 -9 -11 -44 -17 -78 -21 -119 20 -254 104 -346 l44 -49 -41 -43
c-116 -125 -145 -317 -70 -469 14 -28 21 -53 16 -54 -31 -11 -130 -86 -157
-119 -69 -86 -112 -221 -99 -305 6 -37 6 -38 -27 -38 -50 0 -147 -28 -196 -57
-117 -68 -198 -192 -208 -316 l-6 -64 -91 -5 c-77 -4 -103 -10 -159 -37 -78
-37 -164 -118 -192 -181 -21 -46 -16 -46 -114 -5 -58 25 -74 27 -160 23 -82
-3 -106 -8 -161 -34 -36 -17 -85 -50 -109 -73 l-44 -41 -41 38 c-94 86 -178
116 -311 110 -79 -3 -101 -8 -157 -36 -119 -58 -209 -177 -233 -305 l-7 -37
-54 0 c-42 0 -54 3 -54 15 0 78 -235 314 -312 315 -15 0 -18 9 -18 54 l0 54
37 7 c128 24 247 114 305 233 28 56 33 78 36 157 6 133 -24 217 -110 311 l-38
41 41 44 c22 24 54 73 72 108 30 62 32 72 32 176 0 101 -2 115 -30 174 -21 46
-26 66 -17 69 7 2 39 22 72 44 112 74 180 207 180 348 l0 67 66 6 c125 10 248
91 317 208 29 49 57 146 57 196 0 33 0 33 38 27 82 -13 221 32 302 98 35 28
111 126 122 158 1 5 26 -2 54 -16 152 -75 347 -46 467 70 l42 41 50 -44 c28
-24 74 -55 103 -69z m-2126 -2819 c54 -53 78 -85 78 -101 0 -28 -102 -137
-138 -147 -20 -6 -37 6 -108 77 -46 46 -84 93 -84 103 0 28 122 145 151 145
16 0 48 -24 101 -77z m-306 -332 c-35 -66 -319 -577 -325 -583 -4 -5 -25 10
-46 32 l-39 40 98 99 c89 90 98 102 98 136 0 27 -7 45 -25 62 -17 18 -35 25
-62 25 -34 0 -46 -9 -136 -98 l-99 -98 -40 39 c-22 21 -37 42 -32 46 20 19
607 337 614 333 4 -3 1 -18 -6 -33z"/>
</g>
</svg>
